<?xml version="1.0" standalone="no"?>
<!DOCTYPE svg PUBLIC "-//W3C//DTD SVG 20010904//EN"
 "http://www.w3.org/TR/2001/REC-SVG-20010904/DTD/svg10.dtd">
<svg version="1.0" xmlns="http://www.w3.org/2000/svg"
 width="899.000000pt" height="1599.000000pt" viewBox="0 0 899.000000 1599.000000"
 preserveAspectRatio="xMidYMid meet">

<g transform="translate(0.000000,1599.000000) scale(0.100000,-0.100000)"
fill="#000000" stroke="none">
<path d="M7135 15636 c-137 -34 -287 -111 -325 -166 -8 -12 -20 -28 -26 -34
-51 -54 -41 -219 26 -411 l20 -59 -53 -56 c-116 -118 -175 -228 -202 -375 -22
-119 -21 -121 30 -69 50 49 134 94 178 94 42 0 67 -32 67 -87 0 -45 -19 -144
-36 -187 -6 -15 2 -14 51 12 32 17 62 29 67 26 4 -3 8 -16 8 -30 0 -13 2 -24
4 -24 2 0 30 16 62 35 32 19 66 35 76 35 10 0 55 -20 101 -45 106 -57 144 -63
226 -35 72 24 113 57 135 109 50 120 161 368 169 379 16 21 30 13 23 -13 -4
-14 -45 -111 -92 -217 -47 -105 -83 -193 -80 -196 3 -2 103 -1 223 4 l218 9 3
48 c4 65 -24 211 -54 277 -38 82 -97 154 -177 214 -86 64 -119 82 -212 113
l-70 24 60 -6 c33 -3 84 -13 113 -21 29 -8 57 -12 62 -9 16 10 68 159 81 229
13 76 6 163 -16 210 -50 104 -186 186 -372 225 -126 26 -174 26 -288 -3z m288
-192 c70 -18 133 -48 196 -94 l44 -32 -7 -59 c-3 -32 -10 -67 -16 -76 -5 -10
-19 -40 -30 -67 -16 -38 -24 -47 -38 -41 -9 4 -60 18 -112 32 -128 33 -268 29
-380 -11 -111 -40 -111 -40 -138 27 -28 70 -45 160 -37 188 14 42 93 93 204
129 72 24 229 26 314 4z"/>
<path d="M8620 14812 l-23 -19 28 -7 c28 -7 48 7 42 28 -6 18 -24 17 -47 -2z"/>
<path d="M3845 14794 c-56 -17 -84 -21 -142 -17 -70 6 -72 5 -103 -25 -17 -17
-45 -34 -63 -37 -43 -8 -71 -30 -64 -50 4 -8 2 -15 -3 -15 -6 0 -10 6 -10 13
-1 6 -15 -4 -33 -24 -49 -55 -140 -119 -170 -119 -43 0 -95 -53 -103 -106 -3
-24 -10 -47 -14 -49 -5 -3 -25 3 -45 12 -36 17 -37 17 -52 -2 -10 -15 -12 -31
-7 -60 9 -49 6 -127 -5 -138 -4 -4 -24 -10 -44 -13 -73 -9 -112 -39 -152 -118
-23 -46 -34 -79 -30 -92 5 -13 4 -15 -2 -6 -8 10 -12 10 -22 -2 -7 -9 -11 -21
-9 -28 3 -7 -8 -23 -23 -35 -32 -27 -59 -95 -40 -101 16 -5 14 -32 -3 -32 -8
0 -16 6 -19 13 -2 6 -3 4 -2 -5 2 -10 -3 -22 -11 -29 -31 -26 -25 -160 8 -180
6 -4 8 -15 4 -25 -6 -15 -9 -16 -15 -5 -14 22 -34 -26 -35 -81 -1 -40 4 -52
33 -82 23 -24 44 -36 62 -36 31 0 56 -21 71 -59 12 -32 3 -85 -17 -101 -8 -7
-15 -22 -14 -34 0 -15 2 -16 6 -6 9 22 26 31 35 17 4 -6 0 -19 -8 -28 -11 -13
-13 -29 -8 -68 6 -43 10 -51 28 -51 17 0 18 -2 6 -10 -13 -9 -12 -12 4 -25 17
-13 17 -15 3 -20 -18 -8 -30 -32 -18 -40 5 -2 21 5 35 16 15 12 29 19 32 16
10 -10 -20 -56 -39 -59 -11 -2 -22 -9 -25 -15 -2 -9 5 -11 29 -6 23 4 30 3 25
-5 -4 -7 -16 -12 -27 -12 -24 0 -24 -4 5 -34 13 -15 33 -26 45 -26 20 0 22 -3
15 -32 -12 -57 -10 -63 19 -66 15 -2 27 -9 27 -17 0 -8 -7 -11 -20 -8 -24 6
-26 -5 -4 -22 14 -10 14 -15 3 -33 -12 -19 -11 -24 8 -42 12 -11 27 -20 33
-20 15 0 12 -20 -5 -26 -27 -11 -16 -31 24 -46 38 -15 40 -15 62 8 31 33 46
30 51 -8 3 -18 8 -41 13 -50 5 -14 2 -18 -15 -18 -19 0 -21 -4 -15 -32 6 -31
28 -58 47 -58 10 0 -2 33 -16 42 -19 13 5 22 25 10 17 -11 23 -9 44 14 14 15
25 34 25 42 0 9 7 13 20 9 10 -3 24 1 30 8 6 7 35 13 67 14 31 0 62 6 69 12
11 9 14 7 14 -10 0 -12 -5 -31 -10 -42 -9 -16 -7 -19 8 -19 10 0 27 7 38 15
10 8 26 14 34 15 21 0 50 -53 39 -73 -7 -11 0 -23 28 -46 21 -17 42 -31 48
-31 5 0 2 7 -7 14 -20 15 -14 26 14 26 13 0 20 10 24 30 4 16 11 27 16 24 5
-4 7 -15 5 -26 -4 -12 2 -26 14 -36 10 -9 19 -21 19 -27 0 -5 -4 -4 -9 3 -6
10 -10 8 -14 -8 -6 -24 5 -30 43 -26 14 2 35 4 48 5 14 1 22 7 22 20 0 29 25
45 49 31 39 -20 16 -62 -34 -62 -35 0 -48 -21 -41 -63 5 -25 13 -36 30 -41 37
-9 70 -1 74 19 3 13 -3 17 -24 17 l-28 0 26 28 c15 15 28 41 30 57 3 29 5 30
68 36 53 4 69 2 85 -12 11 -10 31 -23 45 -29 14 -6 41 -20 60 -31 39 -21 50
-11 26 25 -14 23 -14 24 7 18 29 -7 48 -22 41 -33 -8 -14 24 -55 69 -85 22
-16 56 -44 75 -61 19 -18 39 -33 45 -33 7 0 18 -9 24 -19 14 -22 70 -41 121
-41 35 0 120 38 141 64 8 9 21 16 30 16 28 0 78 -89 96 -172 15 -70 35 -113
35 -75 0 8 6 17 14 20 7 3 18 33 25 66 7 34 16 59 22 56 5 -4 9 -13 9 -21 0
-8 4 -14 9 -14 5 0 18 -15 29 -34 16 -27 26 -33 49 -32 15 1 34 5 41 10 11 6
11 4 3 -10 -6 -11 -24 -53 -41 -94 -17 -41 -35 -84 -40 -95 -91 -200 -143
-369 -279 -910 -39 -154 -84 -331 -101 -394 -16 -62 -30 -118 -30 -125 0 -6
26 41 58 104 48 96 113 203 212 350 56 82 71 130 79 243 7 116 1 239 -11 202
-10 -32 -20 -84 -24 -129 -2 -22 -4 -45 -5 -51 0 -5 2 -26 5 -45 l6 -35 -20
40 c-42 86 -23 203 65 380 35 71 82 177 105 235 78 198 157 350 220 424 14 17
60 63 102 104 43 41 80 83 83 93 4 10 11 18 17 16 6 -1 18 11 27 28 9 16 24
38 34 49 9 11 17 25 16 30 0 6 -3 5 -6 -1 -6 -15 -23 -17 -23 -4 0 6 26 37 57
71 94 102 253 166 439 177 103 6 171 -6 249 -44 l50 -25 -40 36 c-22 20 -48
38 -57 42 -10 3 -18 9 -18 14 0 10 -85 36 -150 45 -94 14 -286 -28 -410 -90
-51 -25 -68 -29 -77 -20 -9 10 -1 20 35 46 67 49 100 65 183 90 94 29 243 32
303 6 52 -23 56 -16 9 14 -132 85 -290 84 -471 -3 -48 -23 -95 -41 -104 -40
-11 1 -15 -3 -12 -12 3 -8 1 -16 -3 -19 -12 -7 -10 34 1 52 7 11 5 13 -9 7
-15 -5 -16 -4 -6 8 14 16 -2 54 -44 111 -12 17 -25 50 -28 75 -6 47 -45 151
-60 161 -13 9 15 49 34 49 9 0 28 9 42 20 32 25 35 25 64 -2 28 -26 43 -16 18
12 -22 25 -13 37 17 24 13 -6 31 -8 41 -6 15 3 17 10 12 47 -7 43 -5 47 36 78
10 7 20 23 24 37 5 19 4 21 -4 10 -8 -11 -11 -3 -12 35 -1 71 -20 128 -47 141
-13 6 -23 13 -23 15 0 2 9 30 20 61 11 31 16 58 11 60 -13 5 1 67 17 70 24 5
-26 70 -70 91 -20 9 -37 22 -37 27 0 6 -6 10 -14 10 -25 0 -29 37 -7 59 23 23
28 56 10 67 -6 3 -9 14 -6 23 3 12 -2 17 -16 18 -11 1 -27 9 -35 17 -13 13
-13 18 1 40 12 17 17 47 17 91 0 37 4 65 10 65 6 0 10 -7 10 -15 0 -8 4 -15
10 -15 15 0 -1 32 -32 65 -24 25 -37 30 -74 30 -42 0 -44 1 -44 28 0 40 -36
87 -65 87 -13 0 -26 -4 -29 -9 -3 -4 6 -6 19 -3 18 3 25 0 25 -12 0 -9 -9 -17
-20 -17 -11 -1 -26 -2 -32 -3 -7 -1 -12 4 -11 11 2 8 -8 10 -33 6 -33 -5 -40
-2 -90 48 -42 41 -56 51 -66 41 -18 -18 -27 -15 -21 8 4 15 0 20 -15 20 -12 0
-38 14 -58 32 -20 18 -44 33 -53 35 -61 8 -84 18 -122 51 -24 21 -64 46 -89
56 -24 10 -67 34 -94 54 -83 61 -161 95 -258 112 -31 6 -76 19 -100 29 -29 13
-70 19 -127 20 -47 1 -90 5 -95 10 -24 18 -44 17 -111 -5z m-230 -54 c3 -5 1
-10 -4 -10 -6 0 -11 5 -11 10 0 6 2 10 4 10 3 0 8 -4 11 -10z m131 -55 c10 -8
15 -14 9 -14 -5 0 -19 6 -29 14 -11 8 -15 15 -10 15 6 0 19 -7 30 -15z m1504
-450 c0 -16 -27 -32 -37 -22 -3 4 -3 13 0 22 8 20 37 20 37 0z m40 -185 c0 -5
-2 -10 -4 -10 -3 0 -8 5 -11 10 -3 6 -1 10 4 10 6 0 11 -4 11 -10z m-2370 -64
c0 -8 -4 -18 -10 -21 -5 -3 -10 3 -10 14 0 12 5 21 10 21 6 0 10 -6 10 -14z
m-140 -124 c0 -5 -7 -17 -15 -28 -14 -18 -14 -18 -15 9 0 17 5 27 15 27 8 0
15 -4 15 -8z m0 -191 c0 -6 -5 -13 -11 -17 -8 -4 -8 -9 0 -17 19 -19 12 -26
-13 -14 -22 11 -23 13 -9 34 16 23 33 31 33 14z m35 -40 c-6 -5 -25 10 -25 20
0 5 6 4 14 -3 8 -7 12 -15 11 -17z m-67 -207 c0 -65 -16 -69 -36 -9 -15 46
-11 60 16 62 17 1 19 -5 20 -53z m-81 -16 c-3 -8 -6 -5 -6 6 -1 11 2 17 5 13
3 -3 4 -12 1 -19z m2913 -119 c0 -5 -4 -9 -10 -9 -5 0 -10 7 -10 16 0 8 5 12
10 9 6 -3 10 -10 10 -16z m-2480 -335 c0 -8 -4 -12 -10 -9 -5 3 -10 10 -10 16
0 5 5 9 10 9 6 0 10 -7 10 -16z m-10 -164 c0 -5 -4 -10 -10 -10 -5 0 -10 5
-10 10 0 6 5 10 10 10 6 0 10 -4 10 -10z m-10 -40 c0 -5 -2 -10 -4 -10 -3 0
-8 5 -11 10 -3 6 -1 10 4 10 6 0 11 -4 11 -10z m327 -102 c-3 -8 -6 -5 -6 6
-1 11 2 17 5 13 3 -3 4 -12 1 -19z m113 -52 c0 -22 -11 -46 -21 -46 -12 0 -31
39 -24 50 9 15 45 12 45 -4z m-307 -26 c6 -24 -8 -36 -17 -14 -8 22 -7 34 3
34 5 0 11 -9 14 -20z m287 -50 c14 -11 19 -20 12 -20 -7 0 -22 9 -34 20 -28
26 -11 26 22 0z m-461 -9 c17 -11 7 -41 -13 -41 -19 0 -29 17 -22 35 6 17 15
18 35 6z m229 -13 c-2 -19 -8 -22 -33 -20 -39 5 -43 9 -19 27 30 23 56 19 52
-7z m67 12 c3 -5 1 -10 -4 -10 -6 0 -11 5 -11 10 0 6 2 10 4 10 3 0 8 -4 11
-10z m212 -30 c2 -46 -5 -54 -31 -34 -18 13 -18 15 -3 32 9 10 17 24 17 30 0
7 4 12 8 12 4 0 8 -18 9 -40z m-57 4 c0 -2 -7 -4 -15 -4 -8 0 -15 4 -15 10 0
5 7 7 15 4 8 -4 15 -8 15 -10z m-75 -4 c3 -5 -1 -10 -10 -10 -9 0 -13 5 -10
10 3 6 8 10 10 10 2 0 7 -4 10 -10z m169 -12 c-3 -5 0 -15 6 -23 7 -8 9 -15 6
-15 -4 0 2 -13 13 -29 23 -32 26 -41 11 -41 -5 0 -10 7 -10 16 0 9 -9 18 -20
21 -15 4 -19 11 -15 24 3 10 2 27 -4 37 -7 14 -6 19 4 19 8 0 12 -4 9 -9z
m-414 -8 c0 -5 -4 -10 -10 -10 -5 0 -10 5 -10 10 0 6 5 10 10 10 6 0 10 -4 10
-10z m578 -25 c-3 -3 -9 2 -12 12 -6 14 -5 15 5 6 7 -7 10 -15 7 -18z m-268 1
c0 -3 -4 -8 -10 -11 -5 -3 -10 -1 -10 4 0 6 5 11 10 11 6 0 10 -2 10 -4z m305
-68 c13 -29 22 -54 20 -57 -8 -7 -12 0 -34 57 -27 67 -17 67 14 0z m502 -13
c-4 -8 -2 -17 3 -20 14 -9 -6 -42 -33 -55 l-22 -11 22 18 c17 13 20 22 13 33
-15 23 -12 50 6 50 10 0 14 -6 11 -15z m1193 -105 c0 -5 -4 -10 -10 -10 -5 0
-10 5 -10 10 0 6 5 10 10 10 6 0 10 -4 10 -10z m-1683 -106 c-3 -3 -12 -4 -19
-1 -8 3 -5 6 6 6 11 1 17 -2 13 -5z"/>
<path d="M6708 14519 c-78 -41 -139 -128 -90 -129 16 -1 16 -1 -1 -11 -10 -6
-28 -8 -39 -6 -20 6 -21 3 -15 -76 11 -144 49 -232 127 -291 90 -69 187 -101
350 -115 l75 -7 -78 -12 c-93 -14 -190 -16 -234 -3 -46 13 -49 -2 -5 -26 95
-51 260 -95 411 -109 58 -6 173 6 236 23 50 14 -3 -13 -78 -39 -123 -44 -220
-47 -367 -13 l-25 6 26 -15 c57 -33 191 -60 294 -59 279 2 521 164 650 434 31
66 72 225 61 236 -5 5 -311 -13 -382 -23 l-41 -5 -6 -62 c-3 -34 -13 -80 -22
-102 -76 -183 -185 -325 -185 -240 0 14 27 106 60 203 33 98 60 181 60 183 0
3 -33 -5 -72 -19 -54 -18 -85 -23 -120 -19 -47 6 -133 44 -177 78 -34 27 -49
24 -129 -27 -39 -25 -76 -43 -82 -39 -5 3 -10 19 -10 35 l0 29 -42 -24 c-43
-25 -73 -31 -81 -17 -3 4 6 50 19 102 28 113 29 143 8 164 -20 21 -51 20 -96
-5z"/>
<path d="M8622 14500 c-27 -26 -28 -42 -2 -65 11 -10 20 -24 20 -32 0 -30 40
-12 60 27 19 38 19 42 4 65 -20 30 -52 32 -82 5z"/>
<path d="M7522 14230 c-41 -107 -103 -293 -98 -297 4 -5 12 8 63 107 32 62 55
149 51 191 l-3 34 -13 -35z"/>
<path d="M8640 14139 c0 -5 5 -7 10 -4 6 3 10 8 10 11 0 2 -4 4 -10 4 -5 0
-10 -5 -10 -11z"/>
<path d="M8646 13904 c-22 -21 -20 -24 14 -24 23 0 30 4 30 20 0 24 -22 26
-44 4z"/>
<path d="M7378 13493 c-51 -3 -68 -8 -68 -18 0 -9 10 -15 25 -15 24 0 25 -3
25 -60 0 -53 2 -60 20 -60 18 0 20 7 20 61 0 60 1 61 25 57 21 -4 25 -1 25 18
0 13 -1 23 -2 22 -2 -1 -33 -3 -70 -5z"/>
<path d="M7595 13491 c-18 -5 -20 -15 -20 -79 0 -39 3 -73 8 -74 29 -5 31 -1
28 47 l-2 50 47 -47 c69 -70 81 -66 80 27 -1 63 -4 75 -18 75 -13 0 -15 -7
-11 -40 7 -52 -5 -51 -54 3 -28 32 -43 42 -58 38z"/>
<path d="M5885 13415 c0 -51 4 -75 12 -75 7 0 13 19 15 48 l3 47 26 -50 27
-50 23 50 24 50 3 -47 c2 -34 7 -48 18 -48 11 0 14 16 14 75 0 66 -2 75 -18
75 -12 0 -25 -14 -37 -40 -10 -22 -22 -40 -27 -40 -5 0 -17 18 -26 40 -12 28
-23 40 -37 40 -19 0 -21 -6 -20 -75z"/>
<path d="M6200 13415 c0 -65 2 -75 18 -75 15 0 17 10 17 75 0 65 -2 75 -17 75
-16 0 -18 -10 -18 -75z"/>
<path d="M6378 13415 l4 -75 65 0 c47 0 64 3 61 13 -3 6 -25 13 -51 15 l-47 3
0 60 c0 49 -3 59 -17 59 -16 0 -18 -9 -15 -75z"/>
<path d="M6645 13441 c19 -26 35 -60 35 -75 0 -16 5 -26 15 -26 10 0 15 10 15
34 0 19 11 49 25 70 30 45 30 46 4 46 -11 0 -18 -4 -15 -8 2 -4 -4 -19 -14
-32 l-18 -24 -19 32 c-12 21 -26 32 -40 32 -22 0 -22 -2 12 -49z"/>
<path d="M6880 13415 c0 -68 2 -75 20 -75 16 0 20 7 20 30 0 28 3 30 35 30 24
0 35 5 35 15 0 10 -11 15 -35 15 -29 0 -35 4 -35 21 0 18 5 20 52 18 33 -2 53
1 56 9 3 9 -18 12 -72 12 l-76 0 0 -75z"/>
<path d="M7148 13415 c-3 -66 -1 -75 15 -75 15 0 17 10 16 75 -1 55 -5 75 -14
75 -10 0 -14 -21 -17 -75z"/>
<path d="M7880 13415 l0 -75 70 0 c56 0 70 3 70 15 0 11 -12 15 -50 15 -38 0
-50 4 -50 15 0 10 10 15 30 15 20 0 30 5 30 15 0 10 -10 15 -30 15 -24 0 -30
4 -30 20 0 19 4 20 50 14 42 -6 50 -4 50 10 0 13 -12 16 -70 16 l-70 0 0 -75z"/>
<path d="M8152 13478 c-16 -16 -15 -53 1 -66 7 -6 30 -12 51 -14 50 -4 62 -28
14 -28 -19 0 -39 5 -44 10 -8 8 -15 6 -24 -5 -19 -23 2 -35 58 -35 55 0 82 14
82 44 0 31 -15 42 -68 51 -23 4 -40 11 -36 16 8 13 58 11 72 -3 10 -10 15 -10
22 2 14 23 -16 40 -70 40 -25 0 -51 -5 -58 -12z"/>
<path d="M8427 13472 c-33 -37 -14 -72 39 -72 17 0 37 -7 44 -15 11 -13 8 -15
-19 -15 -18 0 -41 4 -51 10 -14 7 -20 6 -24 -7 -9 -23 11 -33 70 -33 57 0 78
15 72 51 -4 26 -19 36 -71 44 -21 3 -35 10 -32 16 9 13 59 11 73 -3 10 -10 15
-10 22 2 24 38 -91 58 -123 22z"/>
<path d="M8675 12910 c-3 -5 -1 -10 4 -10 6 0 11 5 11 10 0 6 -2 10 -4 10 -3
0 -8 -4 -11 -10z"/>
<path d="M4757 11868 c-68 -107 -129 -218 -146 -262 -11 -29 -28 -68 -40 -87
-93 -158 -130 -235 -173 -361 -26 -76 -32 -114 -36 -208 -3 -75 -8 -108 -13
-95 -6 14 -8 5 -6 -27 2 -26 6 -51 10 -54 4 -4 7 -18 7 -31 0 -14 4 -21 10
-18 12 7 13 -67 4 -139 -5 -33 -10 -44 -16 -34 -6 8 -8 -4 -5 -36 3 -30 1 -43
-4 -35 -7 11 -9 10 -9 -4 0 -18 -19 -58 -33 -68 -10 -7 -21 -25 -66 -110 -18
-35 -37 -66 -41 -69 -4 -3 -11 -25 -15 -50 -4 -25 -16 -57 -26 -72 -11 -14
-19 -31 -19 -37 0 -6 -7 -27 -16 -48 -9 -21 -24 -55 -33 -75 -9 -21 -19 -38
-23 -38 -5 0 -8 -8 -8 -19 0 -10 -7 -24 -15 -31 -8 -7 -15 -20 -15 -29 0 -9
-11 -33 -25 -53 -14 -20 -25 -48 -25 -62 0 -13 -7 -31 -15 -39 -11 -12 -12
-17 -2 -20 6 -3 -1 -6 -18 -7 -46 -1 -17 -14 130 -55 72 -20 160 -45 197 -56
36 -10 73 -17 81 -13 8 3 29 33 46 68 25 49 34 82 42 161 5 55 14 125 18 155
5 30 6 136 3 235 -4 176 3 278 48 660 5 44 17 163 25 265 19 220 19 219 91
441 59 183 108 292 143 321 22 19 27 43 11 53 -5 3 -16 -5 -23 -17z"/>
<path d="M5482 11258 c-16 -16 -16 -82 -1 -72 7 4 9 2 5 -7 -3 -8 -9 -22 -12
-31 -11 -31 -32 -28 -54 8 -23 36 -35 42 -43 22 -3 -10 -10 -8 -23 6 -19 18
-18 18 4 11 30 -9 28 10 -3 31 -30 20 -47 11 -44 -24 1 -15 1 -42 1 -61 -2
-31 -4 -33 -29 -26 l-28 6 23 -21 c29 -28 28 -32 -5 -17 -34 14 -42 24 -36 46
2 9 -5 22 -17 29 -17 10 -20 10 -20 -2 0 -8 4 -18 10 -21 5 -3 7 -19 4 -34 -3
-16 -1 -38 5 -49 9 -18 8 -23 -8 -32 -29 -15 -71 -12 -77 5 -9 22 -23 18 -17
-5 7 -27 -24 -16 -32 11 -7 20 -25 26 -25 9 0 -6 7 -22 16 -35 19 -29 12 -58
-20 -75 -14 -7 -22 -18 -19 -26 2 -7 1 -18 -3 -25 -11 -18 -8 -99 3 -110 8 -8
13 -7 17 0 4 6 16 11 28 11 17 0 19 -2 7 -16 -7 -9 -22 -14 -35 -11 -23 4 -40
-16 -29 -33 3 -5 -7 -18 -22 -30 -16 -12 -28 -32 -29 -43 -1 -12 -5 -31 -9
-42 -7 -15 -3 -14 20 8 33 30 55 37 34 10 -29 -37 -79 -83 -89 -83 -5 0 -10
-5 -10 -10 0 -7 6 -7 20 0 16 9 20 8 20 -5 0 -8 -10 -19 -23 -24 -41 -16 -58
-97 -53 -252 4 -118 2 -139 -16 -178 -11 -24 -21 -53 -22 -65 -2 -11 -8 -32
-14 -46 -6 -14 -13 -33 -16 -43 -3 -9 -9 -16 -13 -15 -4 1 -18 -3 -30 -10 -12
-6 -29 -9 -37 -6 -9 4 -16 1 -16 -6 0 -7 -8 -19 -17 -26 -16 -12 -16 -15 -3
-24 10 -6 11 -10 3 -10 -18 0 -16 -29 2 -37 13 -5 13 -8 -4 -20 -34 -23 -42
-47 -28 -83 11 -29 10 -33 -10 -50 -13 -10 -23 -21 -23 -26 0 -12 -59 -64 -73
-64 -7 0 -28 -11 -47 -23 -52 -36 -84 -41 -105 -17 -24 27 -35 25 -35 -5 0
-18 -5 -25 -20 -25 -13 0 -20 -7 -20 -20 0 -11 -5 -20 -11 -20 -8 0 -8 -5 1
-15 9 -10 9 -15 1 -15 -22 0 -10 -39 20 -64 17 -14 34 -26 39 -26 18 0 70 -57
81 -89 13 -36 14 -36 132 -15 24 4 37 2 37 -5 0 -6 7 -11 15 -11 19 0 19 -24
1 -40 -8 -6 -16 -26 -18 -43 -2 -25 -8 -33 -26 -35 -17 -3 -25 2 -29 17 -5 18
-13 21 -64 21 -33 0 -59 4 -59 9 0 5 -17 15 -37 22 -21 6 -43 16 -49 20 -6 5
-20 8 -30 7 -31 -4 -118 13 -106 21 15 9 4 51 -14 51 -7 0 -15 -4 -18 -9 -3
-4 -45 -7 -93 -5 -76 3 -90 6 -106 25 -15 19 -21 20 -43 10 -31 -14 -81 -14
-89 -1 -3 6 -17 10 -31 10 -13 0 -24 5 -24 10 0 6 -7 10 -15 10 -21 0 -118 50
-127 65 -5 8 -29 12 -69 11 -48 -2 -64 2 -72 15 -6 9 -16 15 -22 12 -7 -2 -22
12 -34 32 -11 20 -27 35 -33 34 -23 -4 -68 13 -81 30 -6 9 -25 22 -40 29 -15
6 -31 21 -35 33 -5 11 -11 20 -15 19 -20 -5 -86 32 -92 50 -5 15 -12 19 -25
15 -13 -4 -20 0 -25 14 -3 10 -12 22 -20 25 -8 3 -15 12 -15 21 0 8 -8 15 -18
15 -11 0 -27 9 -37 20 -10 11 -27 20 -37 20 -11 0 -28 4 -38 10 -10 5 -37 12
-60 14 -23 2 -46 8 -53 15 -6 6 -14 11 -18 11 -4 0 -23 14 -41 30 -18 17 -36
30 -41 30 -5 0 -23 10 -40 23 -39 28 -65 43 -96 57 -45 20 -122 92 -116 108 3
8 0 21 -6 28 -14 16 -3 34 20 34 25 0 33 11 20 27 -9 10 -5 13 21 13 31 0 32
1 17 18 -10 10 -17 23 -17 29 0 6 -4 13 -10 15 -6 2 -2 35 10 83 31 125 23
305 -12 305 -5 0 -8 16 -8 35 0 35 -12 52 -63 88 -14 10 -35 40 -46 67 -19 45
-20 51 -6 84 16 39 24 43 43 24 13 -13 13 -17 15 92 2 63 1 65 -21 62 -16 -2
-29 4 -39 17 -20 30 -100 25 -91 -5 1 -5 -6 -24 -16 -42 -15 -30 -35 -104 -53
-199 -3 -18 -9 -33 -12 -33 -4 0 -21 -20 -39 -45 -17 -25 -36 -45 -42 -45 -6
0 0 15 14 33 27 36 76 173 76 215 0 15 -3 43 -6 63 -5 30 -10 36 -25 32 -10
-3 -19 -9 -19 -14 0 -4 -36 -43 -80 -85 -44 -43 -80 -82 -80 -87 0 -5 -10 -22
-22 -37 -13 -16 -36 -47 -53 -70 -40 -55 -45 -33 -6 25 17 25 31 48 31 50 0 2
14 27 30 55 16 28 30 57 30 65 0 8 5 15 10 15 6 0 10 5 10 11 0 8 -4 8 -13 1
-7 -6 -39 -18 -72 -26 -67 -18 -86 -29 -137 -80 -20 -20 -41 -36 -46 -36 -6 0
-14 -9 -17 -20 -4 -11 -11 -18 -16 -15 -5 4 -9 -1 -9 -9 0 -9 -7 -16 -15 -16
-8 0 -21 -12 -29 -27 l-15 -28 -1 29 c0 26 -2 28 -13 14 -13 -18 -61 -48 -120
-75 -27 -13 -44 -31 -60 -63 -15 -32 -23 -40 -25 -27 -4 21 -20 6 -143 -140
-38 -45 -94 -106 -125 -135 -30 -29 -80 -84 -109 -123 -55 -73 -118 -129 -145
-130 -8 0 -16 -10 -18 -23 -2 -15 -9 -22 -17 -18 -8 3 -17 1 -20 -4 -4 -6 -1
-10 4 -10 6 0 11 -4 11 -10 0 -5 -9 -10 -20 -10 -11 0 -17 -5 -15 -13 3 -7
-29 -48 -70 -92 -42 -44 -92 -100 -113 -125 -46 -57 -164 -192 -213 -245 -91
-98 -169 -183 -205 -225 -21 -25 -96 -106 -167 -182 l-128 -136 3 -50 3 -50
140 156 c77 85 188 205 246 266 58 61 121 129 140 151 18 22 130 137 249 256
298 300 365 370 532 564 80 94 163 185 183 204 l36 34 49 -48 c26 -26 56 -62
66 -80 17 -33 17 -33 -10 -66 -107 -131 -250 -250 -278 -233 -4 3 -5 -2 -2
-10 7 -17 -11 -22 -21 -6 -3 6 -17 10 -31 10 -28 0 -33 -25 -5 -33 10 -2 20
-16 23 -29 5 -28 -33 -83 -147 -215 -119 -136 -126 -147 -121 -167 3 -13 2
-16 -6 -8 -14 14 -46 -18 -40 -41 3 -11 -7 -30 -27 -49 -17 -17 -31 -26 -31
-20 0 5 11 20 25 33 13 13 25 29 25 34 0 6 -23 -13 -50 -42 -49 -51 -69 -84
-30 -48 11 10 20 14 20 8 0 -5 -9 -18 -21 -29 -16 -14 -22 -15 -28 -5 -6 9
-10 5 -15 -13 -4 -15 -68 -90 -145 -169 -76 -78 -198 -205 -272 -281 -74 -77
-207 -211 -296 -300 l-163 -160 0 -48 c0 -26 2 -48 5 -48 7 0 105 105 177 190
80 95 116 135 183 209 33 37 74 83 91 103 65 78 778 795 845 849 38 32 87 76
109 98 41 42 48 44 29 9 -9 -16 -8 -19 3 -12 28 17 45 34 88 83 8 10 24 21 35
25 17 6 16 3 -5 -17 -14 -13 -36 -38 -49 -55 -13 -18 -30 -32 -37 -32 -8 0
-14 -5 -14 -11 0 -6 -10 -23 -22 -38 -13 -15 -34 -42 -48 -61 -14 -18 -32 -40
-41 -49 -9 -9 -36 -38 -59 -66 -38 -45 -95 -106 -325 -355 -38 -41 -122 -131
-185 -200 -157 -170 -373 -398 -594 -625 l-185 -190 -1 -78 0 -78 28 21 c59
46 190 179 582 590 113 118 246 258 296 310 50 52 129 135 175 184 187 198
399 416 483 496 49 47 144 140 212 207 l124 121 22 -31 c12 -18 33 -43 47 -57
14 -14 43 -47 63 -75 20 -27 47 -59 60 -70 12 -12 34 -34 48 -50 14 -17 58
-52 99 -79 167 -110 322 -237 505 -415 207 -202 249 -239 401 -353 99 -74 134
-96 250 -158 33 -18 94 -52 135 -76 65 -37 339 -164 354 -164 3 0 34 -14 68
-31 81 -39 160 -48 212 -24 37 18 38 17 109 -10 40 -15 131 -56 203 -91 110
-53 140 -64 183 -64 95 0 134 27 226 160 32 47 70 101 85 120 14 19 72 112
128 206 56 93 111 180 123 193 l21 22 44 -88 c24 -48 51 -113 60 -143 9 -30
20 -59 24 -65 4 -5 21 -42 37 -80 29 -69 41 -88 116 -171 42 -47 77 -137 77
-197 0 -99 55 -343 106 -470 24 -60 44 -122 44 -138 0 -29 26 -91 60 -139 9
-14 25 -50 35 -80 10 -30 33 -82 51 -116 19 -33 34 -70 34 -80 0 -11 -24 -43
-53 -72 -46 -45 -61 -54 -103 -60 l-49 -7 -3 -50 c-3 -41 -10 -56 -40 -90 -21
-22 -53 -61 -71 -87 -19 -27 -38 -48 -43 -48 -4 0 -48 16 -98 36 -66 27 -90
41 -90 54 0 24 13 28 129 36 54 4 104 9 109 13 9 5 17 75 13 107 -4 33 -276
23 -350 -13 -100 -50 -118 -214 -30 -283 17 -13 68 -39 113 -56 80 -31 105
-56 76 -74 -7 -5 -66 -11 -130 -15 l-118 -7 -5 -57 c-2 -31 -1 -60 4 -66 5 -5
39 -11 77 -13 98 -5 98 -5 61 -59 -18 -27 -36 -49 -41 -51 -4 -2 -8 -8 -8 -14
0 -6 -16 -30 -35 -54 -40 -48 -41 -49 -245 -64 -222 -17 -636 -49 -950 -75
-162 -13 -333 -27 -380 -30 -47 -4 -184 -15 -305 -25 -121 -10 -263 -22 -315
-25 -52 -3 -165 -12 -250 -20 -85 -8 -225 -19 -310 -25 -85 -5 -264 -20 -398
-32 l-243 -21 -117 -121 c-100 -103 -346 -359 -362 -376 -3 -3 -36 -38 -73
-77 l-68 -72 328 -247 c180 -135 338 -255 350 -267 28 -25 -25 -28 1033 58
906 73 1087 87 1455 115 220 16 481 37 580 45 224 20 575 47 940 75 154 11
323 25 375 30 52 5 196 17 320 25 124 8 254 18 288 21 l64 7 -38 -54 c-21 -30
-47 -64 -57 -76 -20 -23 -21 -39 -2 -25 6 4 33 35 60 69 28 35 54 63 58 63 5
0 6 4 3 9 -8 12 27 18 146 26 l98 7 99 101 c55 56 115 119 134 141 20 21 40
35 46 32 5 -4 13 -1 17 5 4 8 3 9 -4 5 -35 -21 1 21 99 119 61 61 118 119 125
130 10 14 14 15 14 5 0 -8 6 -4 13 9 13 27 41 42 31 18 -3 -9 3 -16 15 -20 14
-3 21 0 21 9 0 8 -5 14 -11 14 -5 0 -7 5 -4 10 3 6 15 10 26 10 11 0 27 7 36
15 8 9 23 13 33 10 12 -4 26 5 45 26 21 26 28 30 36 18 8 -13 13 -6 10 14 -1
5 8 5 20 2 17 -6 21 -4 16 9 -8 21 1 25 75 35 35 5 105 21 157 35 52 15 137
31 190 36 195 20 385 64 463 106 14 8 33 14 42 14 14 0 16 37 16 363 0 338 -1
366 -20 417 -11 30 -43 123 -72 205 -47 138 -124 313 -180 410 -12 22 -52 81
-89 130 -38 52 -102 162 -150 260 -97 195 -160 296 -263 426 -41 50 -79 108
-85 130 -14 47 -35 69 -66 69 -14 0 -32 11 -44 28 -12 15 -24 32 -29 37 -4 6
-19 26 -32 45 -13 19 -72 94 -130 165 -187 232 -264 344 -280 408 -19 80 -30
92 -87 95 -28 2 -77 -4 -109 -12 -89 -21 -178 -49 -184 -56 -3 -3 -36 -6 -75
-5 -38 0 -74 -3 -80 -6 -5 -4 -44 -4 -85 1 -41 5 -77 7 -80 5 -3 -2 -3 21 -2
50 3 46 1 54 -22 73 -33 25 -32 33 1 72 22 27 28 45 33 109 3 42 8 81 12 87 4
6 -10 21 -32 35 -22 13 -40 32 -40 42 0 9 -5 17 -11 17 -7 0 -17 8 -24 17 -10
13 -32 18 -84 21 -65 4 -71 6 -66 23 4 12 2 19 -7 19 -7 0 23 21 67 47 257
149 423 339 455 521 9 52 8 67 -5 95 -26 56 -85 249 -85 281 0 40 -24 119 -33
110 -4 -4 -7 -21 -7 -38 0 -31 -28 -102 -52 -132 -7 -9 -37 -41 -67 -71 -42
-42 -56 -51 -67 -42 -11 9 -14 8 -14 -5 0 -9 -6 -16 -13 -16 -8 0 -22 -9 -31
-19 -26 -29 -73 -43 -80 -25 -3 8 -18 14 -33 14 -23 0 -32 8 -47 40 -11 22
-23 40 -28 40 -4 0 -8 7 -8 15 0 18 -49 64 -67 65 -7 0 -13 6 -13 14 0 8 -7
16 -15 19 -8 4 -21 23 -30 44 -9 21 -22 43 -29 48 -10 8 -16 47 -19 140 -3 72
-6 131 -6 133 -1 1 -13 2 -28 2 -21 0 -34 -9 -50 -35 -13 -19 -23 -39 -23 -45
0 -5 -6 -7 -13 -4 -8 3 -18 -16 -30 -56 -22 -71 -56 -134 -77 -138 -35 -8 -56
-55 -28 -64 6 -2 8 -10 4 -16 -8 -13 -27 0 -39 28 -8 17 0 -31 9 -53 3 -8 -1
-17 -9 -20 -10 -4 -13 2 -11 21 3 22 2 23 -4 7 -5 -11 -21 -47 -36 -80 -16
-33 -32 -70 -37 -82 -5 -13 -15 -23 -24 -23 -12 0 -15 15 -15 80 0 64 3 80 15
80 10 0 15 10 15 29 0 23 -5 30 -27 36 -21 5 -24 8 -12 16 11 8 9 14 -13 34
-30 26 -35 41 -15 48 9 4 9 7 -1 18 -11 12 -15 11 -23 -3 -16 -29 -34 -21 -49
25 -14 40 -18 43 -70 54 -30 6 -48 12 -40 14 8 1 -7 5 -35 8 -39 5 -50 10 -49
24 1 9 -4 17 -12 17 -8 0 -14 -9 -14 -20 0 -11 -4 -20 -10 -20 -5 0 -10 4 -10
9 0 5 -9 13 -20 16 -11 4 -18 10 -15 15 3 4 -6 7 -19 6 -13 0 -22 -4 -19 -8 2
-5 -3 -8 -11 -8 -8 0 -16 -8 -18 -17 -3 -10 -4 1 -4 24 0 23 4 39 8 37 16 -10
21 29 10 75 -8 37 -8 47 4 54 30 17 10 77 -26 77 -9 0 -21 -5 -28 -12z m-82
-119 c0 -6 -4 -7 -10 -4 -5 3 -10 11 -10 16 0 6 5 7 10 4 6 -3 10 -11 10 -16z
m-270 -159 c0 -5 -2 -10 -4 -10 -3 0 -8 5 -11 10 -3 6 -1 10 4 10 6 0 11 -4
11 -10z m700 -45 c0 -8 -4 -15 -10 -15 -5 0 -10 7 -10 15 0 8 5 15 10 15 6 0
10 -7 10 -15z m-733 -51 c13 -4 20 -10 17 -15 -8 -14 -40 -10 -54 6 -14 17 -3
20 37 9z m-2742 -84 c6 -10 -41 -60 -56 -60 -5 0 -9 11 -9 25 0 16 6 25 15 25
8 0 15 5 15 10 0 13 27 13 35 0z m42 -12 c-3 -8 -6 -5 -6 6 -1 11 2 17 5 13 3
-3 4 -12 1 -19z m2835 10 c-7 -7 -12 -29 -12 -49 0 -42 -18 -63 -27 -31 -3 12
-11 18 -18 16 -7 -3 -16 -1 -19 5 -9 14 49 71 71 71 13 0 14 -3 5 -12z m-3452
-87 c0 -4 -9 -17 -21 -29 -11 -12 -18 -26 -15 -31 3 -5 -16 -26 -42 -47 -26
-21 -62 -54 -80 -72 -19 -19 -36 -31 -39 -28 -9 9 34 70 66 94 17 12 31 31 31
42 0 10 9 21 19 25 11 3 30 19 42 35 21 26 39 31 39 11z m-70 -5 c0 -2 -7 -7
-16 -10 -8 -3 -12 -2 -9 4 6 10 25 14 25 6z m3480 -6 c0 -5 -4 -10 -10 -10 -5
0 -10 5 -10 10 0 6 5 10 10 10 6 0 10 -4 10 -10z m-75 -59 c-3 -12 0 -21 10
-25 8 -3 15 -10 15 -16 0 -6 -3 -9 -7 -7 -5 3 -8 -19 -8 -47 0 -45 2 -52 18
-48 9 2 17 -1 17 -7 0 -6 -4 -11 -10 -11 -6 0 -6 -9 -1 -22 13 -36 12 -110 -2
-105 -7 2 -11 18 -9 37 4 40 -6 83 -18 75 -5 -3 -14 3 -20 12 -11 17 -11 17
-6 0 4 -12 2 -17 -6 -15 -9 3 -14 29 -15 73 -1 55 2 74 18 97 24 32 33 36 24
9z m936 -34 c-10 -9 -11 -8 -5 6 3 10 9 15 12 12 3 -3 0 -11 -7 -18z m-4221
-54 c-13 -19 -116 -98 -143 -109 -31 -12 -17 14 26 48 23 18 44 36 45 40 2 5
12 8 21 8 10 0 26 9 36 20 22 24 31 20 15 -7z m3165 -2 c-3 -6 -11 -11 -17
-11 -6 0 -6 6 2 15 14 17 26 13 15 -4z m973 -37 c-2 -11 -16 -25 -32 -33 -24
-11 -30 -11 -37 0 -6 10 0 22 23 41 33 29 53 25 46 -8z m-1010 -51 c-9 -10
-18 -25 -21 -33 -3 -9 -6 -4 -6 12 -1 16 6 31 16 37 24 13 29 5 11 -16z m966
-19 c-5 -19 -4 -25 5 -20 17 11 13 -10 -9 -46 -21 -35 -26 -68 -10 -68 5 0 7
-7 4 -15 -4 -8 -10 -15 -15 -15 -4 0 -6 7 -3 15 4 8 1 15 -5 15 -6 0 -11 -7
-11 -15 0 -8 -4 -15 -10 -15 -25 0 5 155 35 176 25 19 26 18 19 -12z m36 22
c0 -3 -4 -8 -10 -11 -5 -3 -10 -1 -10 4 0 6 5 11 10 11 6 0 10 -2 10 -4z
m-950 -51 c-7 -9 -15 -13 -17 -11 -7 7 7 26 19 26 6 0 6 -6 -2 -15z m30 -18
c0 -2 -10 -12 -22 -23 l-23 -19 19 23 c18 21 26 27 26 19z m-72 -34 c-15 -15
-31 -23 -35 -19 -4 4 3 16 17 26 37 29 49 24 18 -7z m902 -114 c0 -5 -7 -9
-15 -9 -8 0 -15 7 -15 15 0 9 6 12 15 9 8 -4 15 -10 15 -15z m-4110 -59 c0
-19 -150 -180 -168 -180 -7 0 -12 5 -12 12 0 6 -9 3 -20 -7 -29 -26 -35 -13
-7 16 13 13 34 40 47 59 13 19 49 58 79 87 41 38 59 49 68 41 7 -6 13 -18 13
-28z m4103 -5 c-3 -9 -8 -14 -10 -11 -3 3 -2 9 2 15 9 16 15 13 8 -4z m-3356
-41 c-3 -3 -12 -4 -19 -1 -8 3 -5 6 6 6 11 1 17 -2 13 -5z m3313 -4 c0 -5 -4
-10 -10 -10 -5 0 -10 5 -10 10 0 6 5 10 10 10 6 0 10 -4 10 -10z m-923 -82
c-3 -7 -5 -2 -5 12 0 14 2 19 5 13 2 -7 2 -19 0 -25z m-3405 -110 c-12 -12
-25 -18 -29 -14 -4 4 3 16 17 26 32 24 40 16 12 -12z m-407 -298 c3 -5 1 -10
-4 -10 -6 0 -11 5 -11 10 0 6 2 10 4 10 3 0 8 -4 11 -10z m4802 -3286 c-3 -3
-12 -4 -19 -1 -8 3 -5 6 6 6 11 1 17 -2 13 -5z m958 -74 c38 -6 73 -14 76 -18
4 -4 4 -47 0 -97 l-6 -90 -187 -16 c-191 -16 -218 -23 -218 -61 0 -21 18 -30
181 -92 134 -51 174 -80 206 -143 23 -49 25 -61 21 -155 -5 -118 -23 -166 -84
-216 -69 -57 -247 -88 -448 -78 -192 9 -186 7 -186 76 0 31 3 77 6 102 l6 45
177 11 c207 13 244 22 239 61 -3 23 -15 31 -108 68 -167 67 -195 81 -234 120
-49 49 -71 123 -63 216 11 130 67 198 197 238 120 36 291 48 425 29z m-928
-84 c100 -27 141 -65 184 -171 22 -56 24 -72 23 -235 -1 -144 -5 -189 -22
-253 -41 -148 -109 -224 -243 -268 -65 -21 -92 -24 -229 -24 -149 0 -157 1
-206 27 -94 50 -133 135 -141 309 -6 133 8 279 37 370 54 174 199 256 455 258
50 0 114 -5 142 -13z m-893 -97 c105 -39 161 -137 172 -301 7 -101 -9 -284
-31 -359 -42 -146 -126 -224 -274 -254 -115 -24 -521 -48 -537 -32 -4 4 4 166
42 819 l6 106 86 12 c304 44 439 46 536 9z m-766 -45 l30 -6 -5 -87 c-3 -47
-9 -93 -14 -101 -6 -12 -43 -18 -171 -28 -199 -16 -208 -20 -208 -99 l0 -56
48 6 c26 4 99 9 162 13 l115 7 -4 -94 c-1 -52 -4 -96 -6 -97 -2 -2 -77 -10
-167 -18 -90 -7 -164 -14 -165 -14 -2 0 -3 -31 -3 -69 0 -55 3 -70 17 -75 9
-4 90 -1 180 5 90 7 166 9 170 5 11 -10 16 -187 6 -197 -13 -13 -315 -50 -434
-52 -99 -2 -108 0 -146 25 -58 38 -85 99 -85 191 -1 84 20 473 28 533 8 64 54
129 113 158 42 22 72 27 193 36 79 6 177 12 218 13 41 2 80 4 86 5 6 1 25 -1
42 -4z m-782 -166 c-4 -62 -15 -270 -25 -461 -11 -192 -22 -351 -26 -355 -9
-9 -268 -30 -277 -22 -6 5 12 410 38 822 l7 106 96 7 c53 3 105 7 116 9 11 2
33 4 49 5 l29 1 -7 -112z m-469 40 c23 -21 23 -23 23 -272 0 -138 -3 -335 -7
-437 l-6 -186 -86 -7 c-47 -4 -106 -9 -130 -13 l-44 -6 7 359 c4 216 3 355 -2
349 -5 -6 -19 -50 -31 -100 -12 -49 -39 -164 -60 -254 -47 -196 -55 -207 -152
-221 -35 -5 -94 -10 -130 -10 -104 0 -104 0 -146 292 -19 134 -37 245 -39 247
-14 14 -14 13 -60 -514 -9 -115 -21 -193 -28 -197 -6 -4 -27 -8 -46 -8 -19 0
-73 -3 -119 -7 l-84 -6 6 79 c10 136 66 727 73 764 7 45 29 79 58 90 34 13
292 32 327 25 51 -11 59 -39 90 -278 16 -122 29 -240 29 -261 0 -22 3 -37 6
-33 3 3 21 83 40 179 74 379 76 386 118 413 25 16 154 31 290 34 69 1 83 -2
103 -21z m4833 -82 c0 -2 -8 -10 -17 -17 -16 -13 -17 -12 -4 4 13 16 21 21 21
13z"/>
<path d="M5685 5993 c-65 -16 -86 -86 -92 -309 -5 -165 -5 -172 16 -193 39
-39 144 -21 171 29 22 42 40 175 40 301 0 125 -1 131 -25 154 -24 25 -59 30
-110 18z"/>
<path d="M4713 5913 c-32 -4 -33 -6 -33 -51 -1 -26 -7 -141 -14 -257 -7 -115
-12 -213 -10 -216 5 -10 106 2 141 16 66 27 99 159 91 367 -3 101 -5 112 -27
129 -23 19 -65 22 -148 12z"/>
<path d="M8670 11175 c0 -8 5 -15 10 -15 6 0 10 7 10 15 0 8 -4 15 -10 15 -5
0 -10 -7 -10 -15z"/>
<path d="M1884 11021 c3 -5 -7 -17 -22 -26 -15 -10 -61 -53 -102 -95 -41 -43
-91 -86 -110 -96 -28 -14 -31 -19 -16 -22 27 -6 60 15 91 57 26 34 105 98 177
145 27 17 28 19 11 32 -21 15 -37 18 -29 5z"/>
<path d="M5680 11020 c0 -5 5 -10 10 -10 6 0 10 5 10 10 0 6 -4 10 -10 10 -5
0 -10 -4 -10 -10z"/>
<path d="M1736 10791 c-12 -5 -15 -10 -9 -14 6 -4 16 0 23 8 14 17 13 17 -14
6z"/>
<path d="M4942 10630 c-6 -11 -12 -24 -12 -30 0 -17 17 -11 24 8 3 9 9 23 12
30 9 20 -10 14 -24 -8z"/>
<path d="M8753 10203 c-8 -3 -11 -14 -7 -29 5 -18 2 -24 -11 -24 -9 0 -13 -4
-10 -10 10 -16 35 -12 42 8 4 9 12 21 20 25 33 20 4 46 -34 30z"/>
<path d="M8514 10109 c-21 -21 -33 -39 -26 -39 7 0 21 -9 32 -20 26 -26 70
-26 103 0 32 26 26 56 -14 65 -16 4 -35 13 -43 20 -11 12 -19 7 -52 -26z"/>
<path d="M3075 9984 c-15 -8 -33 -14 -39 -14 -7 0 -21 -6 -31 -14 -15 -11 -17
-17 -7 -28 6 -8 9 -17 6 -21 -3 -3 5 -3 18 0 17 3 19 2 9 -5 -11 -8 -6 -14 22
-27 33 -15 38 -15 52 -2 8 9 15 20 15 26 0 6 8 11 18 11 40 1 82 64 50 74 -41
13 -89 13 -113 0z"/>
<path d="M1407 9863 c-4 -3 -7 -11 -7 -17 0 -6 5 -5 12 2 6 6 9 14 7 17 -3 3
-9 2 -12 -2z"/>
<path d="M4648 9753 c7 -3 16 -2 19 1 4 3 -2 6 -13 5 -11 0 -14 -3 -6 -6z"/>
<path d="M4209 7169 c-14 -20 -17 -21 -90 -8 -41 7 -86 9 -101 6 -31 -8 -51
-50 -46 -103 3 -36 5 -39 36 -42 27 -3 35 1 39 18 5 18 11 21 37 16 17 -3 60
-9 96 -12 58 -6 67 -4 85 15 14 16 19 37 20 74 0 51 -1 52 -31 55 -23 2 -35
-3 -45 -19z"/>
<path d="M4668 7031 c-68 -7 -87 -24 -110 -96 -97 -296 -159 -497 -154 -502 3
-3 44 -2 92 3 l86 9 19 61 19 61 61 7 c101 10 96 13 105 -51 l9 -58 85 4 c47
2 87 5 89 7 10 9 -106 512 -125 542 -16 24 -50 26 -176 13z m71 -222 c7 -50
11 -92 9 -94 -6 -6 -77 -9 -83 -3 -5 5 8 61 41 176 9 32 21 4 33 -79z"/>
<path d="M4303 7000 c-39 -3 -74 -7 -77 -10 -2 -3 -8 -79 -12 -168 l-7 -163
-18 41 c-17 37 -82 149 -102 175 -4 6 -21 30 -38 54 l-31 43 -60 -4 c-95 -7
-92 0 -108 -312 -7 -146 -11 -269 -7 -272 3 -3 39 -3 81 1 l75 7 6 42 c3 22 6
96 8 163 1 68 5 123 9 123 3 0 11 -14 17 -31 13 -37 145 -252 166 -269 21 -17
118 -4 139 19 12 13 18 56 26 177 21 325 23 381 14 385 -5 3 -41 2 -81 -1z"/>
<path d="M3561 6939 c-171 -16 -186 -37 -202 -294 -12 -200 -7 -240 38 -274
30 -24 112 -28 253 -11 135 16 126 9 122 84 l-4 65 -81 -6 c-149 -13 -142 -15
-145 39 l-3 46 88 7 c48 3 95 7 103 8 11 2 16 18 18 65 l3 62 -38 -4 c-21 -3
-66 -8 -100 -11 l-63 -6 0 39 c0 49 5 51 126 59 51 3 97 9 102 12 6 3 11 33
13 66 l4 60 -70 1 c-38 1 -112 -2 -164 -7z"/>
<path d="M3160 6901 l-45 -6 -11 -201 c-6 -110 -17 -210 -23 -222 -23 -42 -86
-56 -116 -25 -18 17 -17 68 1 347 l6 89 -87 -6 c-48 -3 -89 -8 -91 -10 -9 -9
-26 -376 -20 -419 16 -105 76 -148 207 -148 103 0 177 20 223 61 58 51 63 78
90 482 l5 67 -47 -2 c-26 0 -67 -4 -92 -7z"/>
<path d="M2429 6850 c-91 -16 -143 -59 -160 -134 -14 -65 1 -127 41 -166 16
-15 68 -43 115 -61 141 -53 129 -78 -41 -91 -65 -4 -119 -10 -122 -12 -2 -3
-6 -31 -9 -64 l-6 -60 47 -7 c26 -4 96 -6 154 -3 87 3 117 9 163 30 68 31 90
70 91 162 2 104 -27 136 -172 190 -66 24 -93 48 -75 65 6 5 61 14 123 19 63 6
116 12 118 15 2 2 5 28 7 57 2 49 0 54 -23 61 -33 9 -193 9 -251 -1z"/>
<path d="M8058 5933 c7 -3 16 -2 19 1 4 3 -2 6 -13 5 -11 0 -14 -3 -6 -6z"/>
<path d="M7049 4987 l-76 -9 -7 -67 c-3 -36 -6 -109 -6 -161 -1 -87 -2 -93
-14 -65 -18 40 -155 258 -170 268 -6 4 -38 6 -71 3 -92 -7 -90 -1 -105 -301
-7 -141 -13 -264 -14 -273 -1 -15 9 -17 79 -14 44 2 83 6 87 10 4 4 10 74 15
156 l8 149 74 -124 c98 -164 93 -159 161 -159 97 0 98 3 115 220 19 248 22
373 10 375 -5 1 -44 -2 -86 -8z"/>
<path d="M6400 4931 l-55 -6 -12 -210 c-6 -115 -12 -248 -12 -294 l-1 -84 87
7 c48 4 88 8 89 9 2 3 33 455 36 527 l2 55 -39 1 c-22 1 -65 -2 -95 -5z"/>
<path d="M5942 4891 c-61 -21 -90 -44 -108 -88 -18 -42 -18 -127 1 -162 15
-30 70 -81 86 -81 5 0 43 -14 84 -31 119 -50 100 -68 -80 -78 l-110 -6 -3 -66
c-3 -80 -6 -79 145 -79 159 0 247 26 282 82 8 13 16 57 19 99 7 121 -15 147
-175 209 -46 17 -83 35 -83 40 0 19 39 29 131 36 52 4 101 8 109 9 23 3 32
106 12 123 -26 20 -245 16 -310 -7z"/>
<path d="M5325 4838 c-62 -6 -95 -14 -107 -26 -9 -9 -47 -111 -84 -227 -95
-298 -109 -344 -102 -350 3 -3 44 -2 92 1 l86 7 19 61 c18 58 20 61 57 68 22
4 56 7 76 7 l37 1 12 -61 12 -61 45 6 c25 3 64 6 88 6 39 0 44 3 44 23 0 12
-27 134 -59 272 -48 201 -64 253 -81 267 -12 10 -27 17 -34 17 -6 -1 -51 -6
-101 -11z m38 -225 c9 -48 15 -89 13 -91 -3 -2 -23 -6 -47 -9 -40 -6 -42 -5
-37 18 17 76 44 169 49 169 4 0 14 -39 22 -87z"/>
<path d="M4888 4803 c-33 -4 -37 -7 -42 -41 -4 -20 -7 -94 -9 -163 l-2 -127
-30 57 c-40 74 -107 178 -139 218 -26 30 -29 31 -84 26 -89 -8 -89 -7 -101
-238 -6 -110 -14 -235 -17 -278 l-7 -79 84 7 c46 4 86 9 88 11 2 2 8 70 13
151 5 81 11 149 13 151 2 2 14 -16 26 -40 44 -86 131 -219 153 -233 21 -14 39
-14 113 1 12 2 27 12 32 22 5 10 15 113 20 228 6 115 14 237 17 272 l6 62 -48
-2 c-27 -1 -66 -3 -86 -5z"/>
<path d="M4163 4740 c-150 -17 -162 -37 -176 -295 -11 -218 -7 -243 47 -276
36 -22 103 -24 241 -9 132 15 125 11 125 86 l0 66 -117 -4 -118 -3 -3 41 c-3
41 -2 41 35 47 21 4 57 7 79 7 23 0 56 3 73 6 31 6 31 7 31 66 l0 60 -92 -7
c-51 -4 -97 -8 -103 -9 -13 -1 -18 55 -6 73 8 12 102 25 229 30 8 1 12 21 12
66 l0 65 -97 -1 c-54 -1 -126 -5 -160 -9z"/>
<path d="M3575 4694 c-65 -8 -122 -17 -124 -20 -3 -3 -7 -37 -9 -77 -2 -40 -9
-166 -17 -282 -7 -115 -10 -213 -7 -216 8 -7 159 5 167 13 3 3 8 51 12 106 l6
100 39 4 c21 2 43 1 47 -2 5 -3 16 -49 26 -103 l18 -98 81 6 c44 4 86 8 92 10
9 3 7 29 -7 92 -22 109 -35 141 -68 158 l-25 13 35 15 c52 22 73 60 73 137 2
142 -80 176 -339 144z m162 -140 c3 -8 2 -30 -1 -49 -6 -29 -12 -36 -44 -45
-20 -5 -47 -10 -60 -10 -22 0 -23 3 -20 58 l3 57 40 5 c49 7 75 1 82 -16z"/>
<path d="M3127 4650 c-114 -10 -215 -21 -223 -24 -10 -4 -14 -23 -14 -70 l0
-64 64 5 c36 3 71 3 78 0 11 -4 11 -40 1 -218 -6 -117 -11 -215 -9 -216 2 -2
42 0 89 3 l85 7 6 41 c3 23 9 118 13 211 4 94 7 173 7 177 2 14 16 19 87 26
l74 7 3 68 3 67 -28 -1 c-15 -1 -122 -9 -236 -19z"/>
<path d="M2763 4619 c-40 -3 -76 -8 -80 -12 -8 -9 -25 -250 -21 -294 2 -18 3
-33 2 -33 -1 0 -20 33 -43 73 -22 39 -64 108 -93 152 l-53 80 -62 0 c-97 0
-93 11 -109 -305 -8 -150 -13 -275 -10 -277 8 -9 158 11 161 21 2 6 7 82 10
170 l7 158 18 -38 c33 -75 161 -273 180 -279 17 -6 69 0 112 11 9 3 19 12 22
20 8 21 38 484 34 526 l-3 33 -72 -6z"/>
<path d="M2029 4560 c-123 -8 -170 -29 -194 -86 -18 -44 -37 -371 -24 -418 5
-18 21 -45 35 -60 23 -23 35 -26 91 -26 77 0 252 19 273 30 11 6 14 22 12 69
l-4 61 -36 -5 c-21 -3 -71 -7 -112 -8 l-75 -2 -3 46 -3 46 47 7 c26 3 63 6 83
6 75 0 81 6 81 72 l0 59 -50 -6 c-27 -3 -72 -7 -100 -10 l-50 -6 0 40 c0 47 1
48 134 60 54 6 99 11 101 13 2 2 5 30 7 63 l3 60 -55 1 c-30 1 -103 -2 -161
-6z"/>
<path d="M2846 3930 c-173 -133 -164 -121 -140 -165 40 -75 35 -75 211 5 87
40 162 76 167 80 10 10 -84 180 -99 179 -5 0 -68 -45 -139 -99z"/>
<path d="M6655 4003 c-249 -32 -333 -113 -323 -312 7 -144 47 -187 249 -267
132 -52 159 -68 159 -93 0 -36 -53 -48 -267 -60 -78 -4 -146 -10 -150 -14 -4
-4 -9 -50 -11 -102 l-4 -94 38 -8 c22 -4 116 -8 209 -8 274 0 391 39 441 149
31 68 40 162 24 241 -10 51 -19 67 -59 105 -38 37 -70 54 -184 99 -127 49
-167 71 -167 89 1 36 41 46 251 62 l157 13 6 51 c3 28 6 70 6 92 l0 42 -63 11
c-60 10 -245 13 -312 4z"/>
<path d="M5960 3933 c-137 -10 -244 -25 -268 -37 -46 -24 -90 -79 -106 -131
-9 -31 -19 -136 -27 -275 -17 -332 -16 -361 15 -414 31 -53 77 -84 137 -92 41
-5 234 12 428 38 l84 11 -7 101 c-4 55 -9 102 -10 104 -2 2 -62 -2 -132 -8
-71 -6 -151 -10 -179 -8 l-50 3 -3 71 -3 71 123 12 c68 6 144 14 171 18 l47 6
0 95 0 95 -67 -6 c-38 -4 -110 -9 -160 -13 l-93 -7 0 51 c0 42 14 76 33 83 5
1 305 28 324 29 23 0 25 11 36 158 l4 52 -126 -2 c-69 -1 -146 -3 -171 -5z"/>
<path d="M5350 3878 c-52 -5 -216 -20 -364 -33 -148 -14 -270 -26 -271 -27 -2
-2 -6 -52 -10 -112 l-7 -108 48 6 c27 3 84 8 128 12 l79 6 -7 -89 c-3 -48 -11
-189 -16 -313 -6 -124 -12 -242 -15 -262 -3 -20 -1 -39 3 -42 10 -6 271 20
279 28 3 3 16 162 27 353 l21 348 85 8 c47 4 104 10 128 13 l42 5 0 63 c0 35
3 84 6 110 l7 46 -34 -1 c-19 -1 -77 -6 -129 -11z"/>
<path d="M4520 3809 c-52 -4 -114 -11 -136 -14 l-42 -6 -6 -117 c-38 -664 -44
-798 -38 -804 9 -8 264 12 275 22 5 4 17 160 27 346 11 187 22 394 26 462 4
69 3 121 -2 121 -5 -1 -52 -5 -104 -10z"/>
<path d="M3940 3758 c-136 -11 -180 -24 -204 -60 -8 -13 -39 -144 -69 -290
-29 -147 -56 -271 -60 -274 -4 -4 -7 13 -7 37 0 25 -13 146 -30 269 -28 212
-31 226 -55 248 -30 25 -79 28 -245 13 -158 -15 -163 -21 -181 -205 -45 -476
-67 -731 -64 -735 3 -2 60 0 127 5 l123 9 7 50 c4 28 16 167 27 310 25 302 31
355 41 355 11 0 15 -22 45 -240 35 -258 34 -249 62 -278 25 -25 27 -25 138
-19 124 7 154 16 177 55 9 15 41 137 73 272 31 135 62 250 67 255 7 7 9 -102
4 -349 l-6 -359 48 6 c26 3 84 9 128 13 l82 6 7 347 c3 190 7 386 8 434 2 86
1 89 -26 113 -31 26 -25 26 -217 12z"/>
<path d="M2785 3658 c-55 -5 -105 -10 -112 -13 -13 -4 -16 -35 -44 -533 -11
-211 -18 -386 -15 -389 3 -3 67 1 143 8 l138 14 7 115 c3 63 14 252 22 420 9
168 19 324 22 348 l5 42 -33 -1 c-18 -1 -78 -6 -133 -11z"/>
<path d="M2048 3596 c-64 -6 -119 -13 -121 -16 -12 -12 -44 -746 -34 -780 14
-53 42 -86 93 -111 42 -20 55 -21 153 -15 101 7 390 42 397 49 2 1 0 52 -3
111 l-6 108 -54 -6 c-29 -3 -106 -9 -172 -13 -112 -6 -119 -5 -125 14 -3 11 3
159 14 329 11 170 20 317 20 327 0 19 7 19 -162 3z"/>
<path d="M6692 2798 c-15 -15 -15 -49 1 -68 7 -8 54 -53 105 -99 50 -46 92
-88 92 -95 0 -6 -29 -47 -65 -90 -92 -110 -105 -130 -105 -160 0 -29 30 -47
62 -38 24 6 238 277 238 301 0 12 -49 63 -135 140 -134 121 -164 138 -193 109z"/>
<path d="M6312 2768 c-33 -33 -12 -61 151 -208 26 -23 47 -47 47 -52 0 -9
-134 -184 -151 -198 -15 -12 -28 -50 -23 -65 9 -22 37 -35 62 -28 12 3 71 68
132 144 89 112 111 145 106 163 -8 31 -263 256 -291 256 -11 0 -26 -5 -33 -12z"/>
<path d="M5932 2738 c-29 -29 -14 -64 55 -124 130 -115 143 -127 143 -138 -1
-6 -37 -56 -81 -111 -103 -128 -104 -130 -84 -161 32 -50 60 -32 178 115 59
74 110 145 114 159 6 27 16 17 -150 166 -118 105 -148 121 -175 94z"/>
<path d="M5552 2708 c-7 -7 -12 -24 -12 -40 0 -22 20 -45 110 -124 l109 -96
-78 -97 c-115 -142 -117 -146 -97 -176 22 -34 61 -33 91 3 83 97 205 260 205
274 0 22 -22 45 -158 167 -112 100 -143 116 -170 89z"/>
<path d="M5178 2679 c-11 -6 -18 -22 -18 -38 0 -23 17 -44 86 -107 48 -44 95
-85 105 -92 11 -7 19 -19 19 -25 0 -7 -37 -57 -81 -112 -95 -117 -102 -129
-94 -155 7 -24 51 -37 74 -23 28 17 231 277 231 296 0 20 -16 37 -135 143
-151 135 -151 135 -187 113z"/>
<path d="M8855 2160 c-60 -4 -175 -11 -255 -14 -80 -4 -172 -12 -205 -17 -33
-5 -112 -9 -175 -9 -107 0 -251 -9 -500 -30 -106 -9 -283 -17 -397 -19 -68 -1
-73 -6 -50 -54 7 -17 20 -27 33 -27 25 0 49 -24 39 -40 -8 -13 15 -37 41 -42
25 -4 25 -32 -1 -37 -11 -2 -22 -6 -25 -10 -9 -11 -50 -31 -64 -31 -26 0 -66
23 -66 37 0 7 -7 13 -15 13 -8 0 -15 -4 -15 -8 0 -17 -75 -41 -145 -47 -104
-9 -117 -11 -155 -22 -19 -6 -66 -14 -104 -18 -38 -3 -81 -12 -95 -20 -15 -7
-55 -17 -89 -21 -72 -8 -81 -19 -19 -23 23 -1 44 -6 45 -12 4 -10 35 -12 45
-3 3 4 120 8 259 10 139 2 318 7 398 10 80 4 253 8 385 9 266 2 527 11 770 25
88 6 235 10 328 10 l167 0 0 200 c0 154 -3 200 -12 198 -7 0 -62 -4 -123 -8z
m-1206 -121 c14 -40 14 -129 1 -129 -5 0 -10 -17 -10 -37 0 -52 -17 -30 -25
32 -17 133 -15 165 10 165 7 0 18 -14 24 -31z"/>
<path d="M2099 1819 c-6 -12 -8 -30 -6 -41 3 -11 1 -32 -5 -47 -5 -14 -10 -45
-9 -69 0 -41 -1 -43 -27 -40 -25 3 -27 6 -24 48 1 25 9 62 18 84 22 58 3 71
-104 71 -72 0 -86 -3 -98 -20 -14 -19 -15 -19 -21 3 -5 22 -7 22 -24 6 -18
-16 -19 -16 -19 -1 0 14 -10 17 -52 16 -39 -1 -46 -3 -28 -8 37 -10 32 -35 -7
-39 -29 -3 -33 -1 -30 20 2 23 1 23 -103 21 -58 -1 -211 -7 -340 -12 -129 -6
-341 -16 -470 -21 -129 -6 -282 -15 -340 -20 -58 -6 -154 -10 -215 -11 -164
-1 -158 2 -168 -99 -10 -116 -14 -141 -22 -173 -5 -20 -3 -33 9 -46 12 -13 17
-42 20 -101 3 -70 1 -85 -15 -98 -11 -10 -15 -20 -9 -26 4 -6 10 -27 13 -46 3
-30 4 -29 5 12 2 38 6 48 23 53 18 6 20 14 18 58 -3 42 0 53 14 55 12 2 17 -3
17 -17 0 -18 4 -20 28 -15 15 4 39 13 54 20 17 9 59 13 121 12 52 -1 108 4
123 10 43 17 185 29 309 26 60 -1 120 2 133 7 13 5 154 11 313 14 159 2 295 8
302 12 7 4 107 8 222 9 162 0 220 4 255 16 30 11 101 18 210 22 91 3 199 11
240 16 139 19 235 26 312 26 59 -1 78 2 78 12 0 10 13 13 48 11 26 -1 63 0 82
4 35 7 131 18 183 20 27 2 32 8 25 28 -2 6 -50 12 -118 15 -63 2 -142 6 -175
9 -119 10 -262 7 -270 -6 -4 -5 -34 -9 -68 -9 -59 1 -63 2 -87 35 -21 29 -30
34 -52 29 -14 -3 -29 0 -33 5 -4 7 5 11 24 11 29 0 31 2 31 40 0 30 -4 40 -16
40 -10 0 -14 5 -10 15 4 10 -3 20 -19 27 -14 6 -25 15 -25 20 0 4 -19 8 -42 9
-33 0 -38 2 -23 9 13 6 -7 9 -62 9 -74 1 -83 -1 -94 -20z m117 -15 c45 -11 17
-54 -35 -54 -17 0 -21 6 -21 36 0 29 3 35 16 30 9 -3 27 -9 40 -12z m-411 -44
c3 -5 -1 -10 -10 -10 -9 0 -13 5 -10 10 3 6 8 10 10 10 2 0 7 -4 10 -10z
m-530 -21 c8 -23 1 -34 -14 -24 -13 8 -15 45 -2 45 5 0 13 -9 16 -21z m1012
-51 c-2 -13 -4 -3 -4 22 0 25 2 35 4 23 2 -13 2 -33 0 -45z m-1297 36 c0 -8
-4 -12 -10 -9 -5 3 -10 10 -10 16 0 5 5 9 10 9 6 0 10 -7 10 -16z m-476 -33
c6 -10 -16 -61 -26 -61 -15 0 -26 35 -17 52 10 19 34 24 43 9z m812 -36 c-2
-5 -13 -9 -25 -8 -11 2 -21 -3 -21 -10 0 -26 -21 -87 -30 -87 -12 0 -1 120 13
137 7 10 16 9 38 -4 16 -10 28 -22 25 -28z m-88 -3 c2 -7 -4 -15 -13 -18 -20
-8 -27 -1 -19 20 7 18 25 17 32 -2z m-232 -36 c22 -17 11 -35 -13 -20 -19 12
-29 34 -16 34 5 0 18 -6 29 -14z m1391 -8 c-3 -8 -6 -5 -6 6 -1 11 2 17 5 13
3 -3 4 -12 1 -19z m-1867 -12 c0 -3 -4 -8 -10 -11 -5 -3 -10 -1 -10 4 0 6 5
11 10 11 6 0 10 -2 10 -4z"/>
<path d="M2545 1820 c3 -5 8 -10 11 -10 2 0 4 5 4 10 0 6 -5 10 -11 10 -5 0
-7 -4 -4 -10z"/>
<path d="M2402 1695 c0 -16 2 -22 5 -12 2 9 2 23 0 30 -3 6 -5 -1 -5 -18z"/>
<path d="M3191 1574 c0 -11 3 -14 6 -6 3 7 2 16 -1 19 -3 4 -6 -2 -5 -13z"/>
<path d="M25 1020 c-4 -6 -3 -16 3 -22 6 -6 12 -6 17 2 4 6 3 16 -3 22 -6 6
-12 6 -17 -2z"/>
<path d="M37 920 c-3 -14 -8 -53 -10 -87 -4 -50 -2 -63 9 -63 22 0 26 21 16
101 -6 52 -10 67 -15 49z"/>
<path d="M2233 593 c9 -2 25 -2 35 0 9 3 1 5 -18 5 -19 0 -27 -2 -17 -5z"/>
<path d="M1355 560 c-7 -12 29 -12 65 0 21 7 19 8 -17 9 -23 1 -45 -3 -48 -9z"/>
<path d="M1455 560 c3 -5 24 -10 45 -10 21 0 42 5 45 10 4 6 -13 10 -45 10
-32 0 -49 -4 -45 -10z"/>
<path d="M5100 502 c-8 -9 -26 -37 -39 -62 -13 -25 -34 -56 -47 -71 -13 -14
-24 -31 -24 -37 0 -7 -8 -15 -17 -19 -10 -3 -29 -16 -43 -29 -14 -13 -47 -28
-73 -33 -51 -9 -121 -1 -99 12 26 17 12 30 -27 23 -28 -4 -42 -2 -51 9 -10 12
-10 15 1 15 9 0 10 3 2 11 -8 8 -19 6 -41 -5 -44 -23 -60 -20 -65 12 -4 26 -4
26 -12 5 -6 -19 -15 -23 -46 -23 -22 0 -39 -5 -39 -11 0 -5 -5 -7 -11 -3 -8 4
-7 9 2 15 11 7 9 12 -8 24 -13 9 -23 21 -23 27 0 19 -44 78 -57 78 -7 0 -13
-7 -13 -15 0 -26 -20 -16 -35 18 -11 25 -14 27 -15 11 0 -12 -7 -27 -15 -34
-8 -7 -15 -19 -15 -27 0 -7 7 -16 15 -19 17 -7 21 -54 5 -54 -34 0 -127 79
-103 87 6 2 8 13 5 25 -3 14 -1 19 6 14 7 -4 12 -1 12 8 0 9 3 16 8 16 4 0 13
9 20 20 10 16 10 20 -1 20 -8 0 -19 -10 -26 -23 -7 -13 -26 -31 -42 -41 -34
-20 -38 -42 -9 -51 14 -4 20 -15 20 -36 0 -32 -19 -39 -40 -14 -9 11 -16 12
-25 5 -6 -5 -15 -6 -19 -2 -4 4 -14 -2 -22 -12 -16 -23 -19 -60 -4 -51 6 3 10
-1 10 -9 0 -28 -18 -26 -29 4 -5 17 -15 30 -20 30 -6 0 -11 6 -11 13 0 17 -40
53 -68 59 -28 8 -42 -16 -42 -69 0 -26 -3 -34 -9 -24 -5 8 -8 24 -6 37 3 28
-19 33 -30 7 -4 -10 -9 -42 -11 -72 -5 -58 -18 -91 -35 -91 -7 0 -10 14 -7 35
6 52 -11 27 -18 -28 -6 -39 -4 -47 10 -47 9 0 16 5 16 11 0 5 5 7 10 4 6 -3 7
-17 4 -31 -3 -13 -3 -44 0 -69 l7 -45 635 0 634 0 0 236 0 236 -20 -23 c-25
-31 -26 -13 0 28 21 35 14 51 -10 25z m20 -159 c0 -27 -3 -34 -11 -26 -7 7 -9
23 -5 37 9 37 16 32 16 -11z m-1213 -56 c2 -23 0 -28 -7 -17 -12 18 -13 50 -2
50 4 0 8 -15 9 -33z m80 -38 c23 -23 -5 -59 -44 -59 -28 0 -30 16 -3 32 11 7
20 18 20 25 0 16 12 17 27 2z m211 -26 c13 -42 7 -57 -19 -50 -11 3 -19 0 -19
-6 0 -8 -4 -7 -12 1 -9 9 -9 18 -1 34 6 13 14 31 17 41 9 27 22 20 34 -20z
m-118 -7 c0 -33 -10 -57 -21 -50 -10 6 -12 57 -2 67 13 14 23 6 23 -17z m214
-2 c9 -22 -3 -32 -14 -14 -12 19 -12 30 -1 30 5 0 12 -7 15 -16z m41 -34 c3
-5 1 -10 -4 -10 -6 0 -11 5 -11 10 0 6 2 10 4 10 3 0 8 -4 11 -10z m-355 -32
c0 -13 5 -30 10 -38 8 -13 11 -12 24 5 9 11 16 23 16 28 0 4 7 7 15 7 13 0 14
-4 4 -22 -17 -33 -42 -55 -57 -50 -6 2 -12 -1 -12 -6 0 -5 -8 -12 -17 -16 -10
-3 -26 -11 -35 -18 -20 -15 -25 -11 -30 22 -2 21 1 25 21 22 l23 -2 -23 19
c-20 16 -21 21 -10 35 7 9 10 16 5 16 -20 0 23 20 44 20 16 0 22 -6 22 -22z
m420 -8 c0 -5 -2 -10 -4 -10 -3 0 -8 5 -11 10 -3 6 -1 10 4 10 6 0 11 -4 11
-10z m-131 -85 l0 -20 -9 20 c-5 11 -9 29 -9 40 l0 20 9 -20 c5 -11 9 -29 9
-40z"/>
<path d="M4275 480 c-3 -5 -1 -10 4 -10 6 0 11 5 11 10 0 6 -2 10 -4 10 -3 0
-8 -4 -11 -10z"/>
<path d="M4355 470 c3 -5 8 -10 11 -10 2 0 4 5 4 10 0 6 -5 10 -11 10 -5 0 -7
-4 -4 -10z"/>
<path d="M4466 405 c-3 -9 0 -15 9 -15 9 0 12 6 9 15 -4 8 -7 15 -9 15 -2 0
-5 -7 -9 -15z"/>
<path d="M4510 410 c0 -5 5 -10 11 -10 5 0 7 5 4 10 -3 6 -8 10 -11 10 -2 0
-4 -4 -4 -10z"/>
<path d="M4047 393 c-9 -9 -9 -33 1 -33 4 0 13 9 20 20 10 16 10 20 -1 20 -8
0 -17 -3 -20 -7z"/>
<path d="M4510 375 c0 -8 5 -15 10 -15 6 0 10 7 10 15 0 8 -4 15 -10 15 -5 0
-10 -7 -10 -15z"/>
<path d="M4610 350 c0 -5 5 -10 10 -10 6 0 10 5 10 10 0 6 -4 10 -10 10 -5 0
-10 -4 -10 -10z"/>
<path d="M4640 350 c0 -5 5 -10 11 -10 5 0 7 5 4 10 -3 6 -8 10 -11 10 -2 0
-4 -4 -4 -10z"/>
<path d="M4060 319 c0 -5 5 -7 10 -4 6 3 10 8 10 11 0 2 -4 4 -10 4 -5 0 -10
-5 -10 -11z"/>
<path d="M1608 303 c7 -3 16 -2 19 1 4 3 -2 6 -13 5 -11 0 -14 -3 -6 -6z"/>
<path d="M88 253 c28 -2 76 -2 105 0 28 2 5 3 -53 3 -58 0 -81 -1 -52 -3z"/>
<path d="M8655 149 c-27 -4 15 -5 95 -2 80 3 147 7 149 9 7 7 -191 1 -244 -7z"/>
<path d="M7813 93 c9 -2 25 -2 35 0 9 3 1 5 -18 5 -19 0 -27 -2 -17 -5z"/>
<path d="M7738 83 c7 -3 16 -2 19 1 4 3 -2 6 -13 5 -11 0 -14 -3 -6 -6z"/>
<path d="M3755 50 c-3 -5 -1 -10 4 -10 6 0 11 5 11 10 0 6 -2 10 -4 10 -3 0
-8 -4 -11 -10z"/>
<path d="M5450 50 c0 -5 -7 -7 -15 -4 -8 3 -19 3 -26 -1 -15 -10 8 -25 37 -25
21 0 39 22 27 34 -10 9 -23 7 -23 -4z"/>
<path d="M3720 10 c0 -5 14 -10 32 -10 35 0 30 12 -7 17 -14 2 -25 -1 -25 -7z"/>
</g>
</svg>
